<?xml version="1.0" encoding="UTF-8" standalone="no"?>
<!-- Created with Inkscape (http://www.inkscape.org/) -->

<svg
   width="60mm"
   height="25mm"
   viewBox="0 0 60 25"
   version="1.1"
   id="svg1"
   inkscape:version="1.4.2 (f4327f4, 2025-05-13)"
   sodipodi:docname="drawing-1.svg"
   xmlns:inkscape="http://www.inkscape.org/namespaces/inkscape"
   xmlns:sodipodi="http://sodipodi.sourceforge.net/DTD/sodipodi-0.dtd"
   xmlns:xlink="http://www.w3.org/1999/xlink"
   xmlns="http://www.w3.org/2000/svg"
   xmlns:svg="http://www.w3.org/2000/svg">
  <sodipodi:namedview
     id="namedview1"
     pagecolor="#ffffff"
     bordercolor="#000000"
     borderopacity="0.25"
     inkscape:showpageshadow="2"
     inkscape:pageopacity="0.0"
     inkscape:pagecheckerboard="0"
     inkscape:deskcolor="#d1d1d1"
     inkscape:document-units="mm"
     showguides="true"
     inkscape:zoom="2.0334082"
     inkscape:cx="19.9173"
     inkscape:cy="3.6883889"
     inkscape:window-width="1920"
     inkscape:window-height="1009"
     inkscape:window-x="-8"
     inkscape:window-y="-8"
     inkscape:window-maximized="1"
     inkscape:current-layer="layer1" />
  <defs
     id="defs1">
    <linearGradient
       id="linearGradient4"
       inkscape:collect="always">
      <stop
         style="stop-color:#ac1818;stop-opacity:1;"
         offset="0"
         id="stop4" />
      <stop
         style="stop-color:#ac1818;stop-opacity:0;"
         offset="1"
         id="stop5" />
    </linearGradient>
    <linearGradient
       id="linearGradient1"
       inkscape:collect="always">
      <stop
         style="stop-color:#000000;stop-opacity:1;"
         offset="0"
         id="stop1" />
      <stop
         style="stop-color:#000000;stop-opacity:0;"
         offset="1"
         id="stop2" />
    </linearGradient>
    <linearGradient
       inkscape:collect="always"
       xlink:href="#linearGradient1"
       id="linearGradient2"
       x1="52.746651"
       y1="97.941927"
       x2="59.693032"
       y2="97.941927"
       gradientUnits="userSpaceOnUse" />
    <linearGradient
       inkscape:collect="always"
       xlink:href="#linearGradient4"
       id="linearGradient5"
       x1="55.756504"
       y1="93.364548"
       x2="55.848515"
       y2="93.272537"
       gradientUnits="userSpaceOnUse" />
  </defs>
  <g
     inkscape:label="Layer 1"
     inkscape:groupmode="layer"
     id="layer1"
     style="display:inline">
    <path
       d="m 5.141269,14.683424 q -0.1763887,0 -0.1763887,-0.176389 V 5.4547645 q 0,-0.1763888 0.1763887,-0.1763888 h 2.5823313 q 0.1763888,0 0.1763888,0.1763888 v 6.4064395 h 1.192388 q 0.1763887,0 0.1763887,0.176389 v 2.469442 q 0,0.176389 -0.1763887,0.176389 z m 6.519334,0 q -0.162278,0 -0.282222,-0.119944 L 9.9672711,13.15237 Q 9.8543823,13.039481 9.8543823,12.870148 V 7.0987076 q 0,-0.1763887 0.1763887,-0.1763887 h 2.229554 q 0.176389,0 0.176389,0.1763887 V 11.80476 q 0,0.289277 0.296333,0.289277 H 13.02938 V 7.0987076 q 0,-0.1763887 0.176389,-0.1763887 h 2.229553 q 0.176389,0 0.176389,0.1763887 v 7.4083274 q 0,0.176389 -0.176389,0.176389 z m 6.350006,0 q -0.162278,0 -0.282222,-0.119944 l -1.41111,-1.41111 Q 16.204388,13.039481 16.204388,12.870148 V 8.7355953 q 0,-0.1693332 0.112889,-0.282222 l 1.41111,-1.4111101 q 0.119944,-0.1199443 0.282222,-0.1199443 h 0.733777 q 0.162278,0 0.282222,0.1199443 l 0.352777,0.3527775 V 5.4547645 q 0,-0.1763888 0.176389,-0.1763888 h 2.229554 q 0.176389,0 0.176389,0.1763888 v 9.0522705 q 0,0.176389 -0.176389,0.176389 h -1.820332 q -0.09172,0 -0.134055,-0.03528 -0.04233,-0.03528 -0.09878,-0.08467 l -0.352778,-0.352778 -0.352777,0.352778 q -0.119944,0.119944 -0.282222,0.119944 z m 1.058332,-2.349498 h 0.02822 q 0.141111,0 0.211667,-0.07761 0.07055,-0.07761 0.07055,-0.218722 V 9.2718171 h -0.296333 q -0.141111,0 -0.218722,0.077611 -0.07761,0.077611 -0.07761,0.2187221 v 2.4694428 q 0,0.141111 0.07056,0.218722 0.07761,0.07761 0.211666,0.07761 z m 6.364117,2.349498 q -0.04939,0 -0.105833,-0.01411 -0.04939,-0.01411 -0.105833,-0.04233 l -1.291166,-0.613833 -1.248832,-0.599722 q -0.127,-0.05644 -0.127,-0.282222 V 8.7355953 q 0,-0.1693332 0.112889,-0.282222 l 1.41111,-1.4111101 q 0.119944,-0.1199443 0.282222,-0.1199443 h 2.144887 q 0.162278,0 0.282222,0.1199443 l 1.41111,1.4111101 q 0.112889,0.1128888 0.112889,0.282222 v 2.8927757 h -3.07622 v 0.268111 l 0.585611,0.261055 1.354665,0.388055 q 0.07761,0.0071 0.07761,0.218722 v 1.742721 q 0,0.176389 -0.176388,0.176389 z m 0.09172,-4.395608 h 0.01411 q 0.268111,0 0.402166,-0.155222 0.141111,-0.1552219 0.141111,-0.4586106 v -0.021167 q 0,-0.3033887 -0.141111,-0.4586108 -0.134055,-0.1552221 -0.402166,-0.1552221 h -0.02117 q -0.246944,0 -0.388055,0.1552221 -0.134056,0.1552221 -0.134056,0.4586108 v 0.021167 q 0,0.3033887 0.134056,0.4586106 0.134055,0.155222 0.395111,0.155222 z m 3.556006,4.395608 q -0.176389,0 -0.176389,-0.176389 V 7.0987076 q 0,-0.1763887 0.176389,-0.1763887 h 3.774719 q 0.162278,0 0.282222,0.1199443 l 1.41111,1.4111101 q 0.112889,0.1128888 0.112889,0.282222 v 5.7714397 q 0,0.176389 -0.176389,0.176389 h -2.229553 q -0.176389,0 -0.176389,-0.176389 V 9.8009833 q 0,-0.2892775 -0.296333,-0.2892775 H 31.48673 v 4.9953292 q 0,0.176389 -0.176389,0.176389 z"
       id="text1"
       style="font-size:14.1111px;font-family:Jaro;-inkscape-font-specification:Jaro;fill:#a12e2e;stroke:#000000;stroke-width:0.2"
       aria-label="Luden" />
    <path
       d="m 4.5449413,19.43347 q -0.070555,0 -0.070555,-0.07056 v -3.620908 q 0,-0.07056 0.070555,-0.07056 h 1.0329326 q 0.070556,0 0.070556,0.07056 v 1.103488 h 0.042333 l 0.1806221,-0.705555 0.1072444,-0.4318 q 0.00564,-0.0254 0.033867,-0.03104 0.031044,-0.0056 0.056444,-0.0056 h 0.9539104 q 0.070556,0 0.070556,0.07056 v 0.728133 q 0,0.0254 -0.011289,0.04516 -0.011289,0.01976 -0.022578,0.04516 l -0.4092219,0.917221 -0.045155,0.07902 0.045155,0.09031 0.4769552,0.945444 q 0.014111,0.02258 0.016933,0.04798 0.00564,0.02258 0.00564,0.05927 v 0.663221 q 0,0.07056 -0.070556,0.07056 H 6.1140957 q -0.022578,0 -0.0508,-0.0085 -0.0254,-0.0085 -0.033867,-0.03387 l -0.1721554,-0.52211 -0.166511,-0.493889 h -0.042333 v 0.987777 q 0,0.07056 -0.070556,0.07056 z m 3.9934458,0 q -0.019756,0 -0.042333,-0.0056 -0.019756,-0.0056 -0.042333,-0.01693 L 7.9372542,19.165359 7.4377212,18.92547 q -0.0508,-0.02258 -0.0508,-0.112889 v -1.758243 q 0,-0.06773 0.045155,-0.112889 l 0.564444,-0.564444 q 0.047978,-0.04798 0.1128888,-0.04798 h 0.8579549 q 0.064911,0 0.1128888,0.04798 l 0.564444,0.564444 q 0.045156,0.04516 0.045156,0.112889 v 1.15711 h -1.230488 v 0.107245 l 0.2342443,0.104422 0.5418662,0.155222 q 0.031045,0.0028 0.031045,0.08749 v 0.697088 q 0,0.07056 -0.070556,0.07056 z m 0.036689,-1.758243 h 0.00564 q 0.1072443,0 0.1608665,-0.06209 0.056444,-0.06209 0.056444,-0.183444 v -0.0085 q 0,-0.121356 -0.056444,-0.183444 -0.053622,-0.06209 -0.1608665,-0.06209 h -0.00847 q -0.098778,0 -0.1552221,0.06209 -0.053622,0.06209 -0.053622,0.183444 v 0.0085 q 0,0.121355 0.053622,0.183444 0.053622,0.06209 0.1580443,0.06209 z m 2.2126251,2.935109 q -0.07056,0 -0.07056,-0.07056 v -0.513644 q 0,-0.05927 0.02822,-0.08467 l 0.211667,-0.211666 0.206022,-0.206022 q 0.03387,-0.03951 0.03387,-0.09031 v -0.189089 l -0.141111,0.141111 q -0.04798,0.04798 -0.112888,0.04798 h -0.293511 q -0.06491,0 -0.112889,-0.04798 L 9.9720789,18.821048 q -0.045155,-0.04516 -0.045155,-0.112889 v -2.308576 q 0,-0.07055 0.070556,-0.07055 H 10.8893 q 0.07056,0 0.07056,0.07055 v 1.975554 q 0,0.05645 0.03104,0.08749 0.03105,0.03104 0.08749,0.03104 h 0.118533 v -2.094087 q 0,-0.07055 0.07056,-0.07055 h 0.891821 q 0.07056,0 0.07056,0.07055 v 3.437464 q 0,0.06773 -0.04516,0.112889 l -0.327377,0.327378 -0.285044,0.285044 q -0.0254,0.0254 -0.0508,0.03669 -0.0254,0.01129 -0.06209,0.01129 z m 1.749781,-1.176866 q -0.07056,0 -0.07056,-0.07056 v -0.643466 q 0,-0.06491 0.04233,-0.08467 l 0.57291,-0.301977 v -0.09878 l -0.57291,-0.310444 q -0.04233,-0.02258 -0.04233,-0.09031 v -0.945444 q 0,-0.02258 0.0056,-0.04233 0.0056,-0.02258 0.03104,-0.04233 l 0.601133,-0.440267 q 0.01975,-0.01129 0.04233,-0.02258 0.02258,-0.01129 0.04798,-0.01129 h 0.874888 q 0.07056,0 0.07056,0.07055 v 0.629355 q 0,0.03669 -0.0056,0.05927 -0.0028,0.02258 -0.03104,0.03669 l -0.527755,0.285044 v 0.09596 l 0.516466,0.282222 q 0.04798,0.02258 0.04798,0.08467 v 0.911577 q 0,0.07056 -0.04798,0.112889 l -0.553155,0.499533 q -0.04516,0.03669 -0.112889,0.03669 z m 2.957683,0 q -0.07056,0 -0.07056,-0.07056 v -2.968975 q 0,-0.06491 0.04798,-0.112889 l 0.564444,-0.564444 q 0.04516,-0.04516 0.112889,-0.04516 h 0.474133 q 0.07055,0 0.07055,0.07056 v 0.891821 q 0,0.07056 -0.07055,0.07056 h -0.163689 v 2.658531 q 0,0.07056 -0.07055,0.07056 z m -0.149578,-1.433688 q -0.07056,0 -0.07056,-0.07056 v -0.894643 q 0,-0.07056 0.07056,-0.07056 h 1.278466 q 0.07055,0 0.07055,0.07056 v 0.894643 q 0,0.07056 -0.07055,0.07056 z m 2.308582,1.433688 q -0.06491,0 -0.112889,-0.04798 l -0.564444,-0.564444 q -0.04516,-0.04516 -0.04516,-0.112889 v -1.653821 q 0,-0.06773 0.04516,-0.112889 l 0.564444,-0.564444 q 0.04798,-0.04798 0.112889,-0.04798 h 0.857955 q 0.06491,0 0.112888,0.04798 l 0.564444,0.564444 q 0.04516,0.04516 0.04516,0.112889 v 1.653821 q 0,0.06773 -0.04516,0.112889 l -0.564444,0.564444 q -0.04798,0.04798 -0.112888,0.04798 z m 0.423333,-0.9398 h 0.0056 q 0.05645,0 0.08749,-0.03104 0.03104,-0.03104 0.03104,-0.08749 V 17.38736 q 0,-0.05644 -0.03104,-0.08749 -0.03104,-0.03104 -0.08749,-0.03104 h -0.0085 q -0.05644,0 -0.08467,0.03104 -0.0254,0.03104 -0.0254,0.08749 v 0.987777 q 0,0.05645 0.02822,0.08749 0.03104,0.03104 0.08467,0.03104 z m 1.464736,0.9398 q -0.07056,0 -0.07056,-0.07056 v -2.963331 q 0,-0.07055 0.07056,-0.07055 h 0.728132 q 0.04798,0 0.09313,0.04798 l 0.138289,0.138289 0.163688,-0.1524 q 0.03951,-0.03387 0.09031,-0.03387 h 0.211667 q 0.07055,0 0.07055,0.07055 v 0.959555 q 0,0.04516 -0.0085,0.06209 -0.0056,0.01411 -0.03104,0.03104 l -0.493888,0.335844 v 1.574799 q 0,0.07056 -0.07056,0.07056 z m 3.395132,1.176866 q -0.07056,0 -0.07056,-0.07056 v -0.513644 q 0,-0.05927 0.02822,-0.08467 l 0.220133,-0.220133 0.197555,-0.197555 q 0.03387,-0.03951 0.03387,-0.09031 v -0.189089 l -0.141111,0.141111 q -0.04798,0.04798 -0.112889,0.04798 h -0.293511 q -0.06491,0 -0.112888,-0.04798 l -0.564444,-0.564444 q -0.04516,-0.04516 -0.04516,-0.112889 v -1.653821 q 0,-0.06773 0.04516,-0.112889 l 0.564444,-0.564444 q 0.04798,-0.04798 0.112888,-0.04798 h 1.509888 q 0.07056,0 0.07056,0.07055 v 3.437464 q 0,0.06773 -0.04516,0.112889 l -0.265289,0.265289 -0.347133,0.347133 q -0.0254,0.0254 -0.0508,0.03669 -0.0254,0.01129 -0.06209,0.01129 z m 0.285044,-2.116666 h 0.01129 q 0.05645,0 0.08467,-0.03104 0.02822,-0.03104 0.02822,-0.08749 v -1.10631 h -0.118533 q -0.05644,0 -0.08749,0.03104 -0.03104,0.03104 -0.03104,0.08749 v 0.987777 q 0,0.05645 0.02822,0.08749 0.03104,0.03104 0.08467,0.03104 z m 2.116668,0.9398 q -0.06491,0 -0.112889,-0.04798 l -0.564444,-0.564444 q -0.04516,-0.04516 -0.04516,-0.112889 v -1.653821 q 0,-0.06773 0.04516,-0.112889 l 0.564444,-0.564444 q 0.04798,-0.04798 0.112889,-0.04798 h 1.509888 q 0.07056,0 0.07056,0.07055 v 2.963331 q 0,0.07056 -0.07056,0.07056 h -0.708377 q -0.03951,0 -0.06491,-0.01129 -0.0254,-0.01129 -0.04798,-0.03669 l -0.141111,-0.141111 -0.141111,0.141111 q -0.04798,0.04798 -0.112889,0.04798 z m 0.423333,-0.9398 h 0.01129 q 0.05645,0 0.08467,-0.03104 0.02822,-0.03104 0.02822,-0.08749 v -1.10631 H 25.76806 q -0.05645,0 -0.08749,0.03104 -0.03104,0.03104 -0.03104,0.08749 v 0.987777 q 0,0.05645 0.02822,0.08749 0.03104,0.03104 0.08467,0.03104 z m 1.464737,0.9398 q -0.07055,0 -0.07055,-0.07056 v -2.963331 q 0,-0.07055 0.07055,-0.07055 h 1.227666 q 0.06491,0 0.112889,0.04798 l 0.347133,0.347133 h 0.104422 l 0.347133,-0.347133 q 0.04798,-0.04798 0.112889,-0.04798 h 0.527755 q 0.06491,0 0.112889,0.04798 l 0.564444,0.564444 q 0.04516,0.04516 0.04516,0.112889 v 2.308576 q 0,0.07056 -0.07056,0.07056 H 29.76715 q -0.07056,0 -0.07056,-0.07056 v -1.882421 q 0,-0.115711 -0.118533,-0.115711 h -0.118534 v 1.998132 q 0,0.07056 -0.07055,0.07056 h -0.891822 q -0.07055,0 -0.07055,-0.07056 v -1.882421 q 0,-0.115711 -0.118533,-0.115711 h -0.118534 v 1.998132 q 0,0.07056 -0.07055,0.07056 z m 4.890904,0 q -0.01976,0 -0.04233,-0.0056 -0.01976,-0.0056 -0.04233,-0.01693 L 31.516923,19.165359 31.01739,18.92547 q -0.0508,-0.02258 -0.0508,-0.112889 v -1.758243 q 0,-0.06773 0.04515,-0.112889 l 0.564444,-0.564444 q 0.04798,-0.04798 0.112889,-0.04798 h 0.857955 q 0.06491,0 0.112889,0.04798 l 0.564444,0.564444 q 0.04516,0.04516 0.04516,0.112889 v 1.15711 h -1.230488 v 0.107245 l 0.234244,0.104422 0.541867,0.155222 q 0.03104,0.0028 0.03104,0.08749 v 0.697088 q 0,0.07056 -0.07056,0.07056 z m 0.03669,-1.758243 h 0.0056 q 0.107244,0 0.160866,-0.06209 0.05645,-0.06209 0.05645,-0.183444 v -0.0085 q 0,-0.121356 -0.05645,-0.183444 -0.05362,-0.06209 -0.160866,-0.06209 h -0.0085 q -0.09878,0 -0.155222,0.06209 -0.05362,0.06209 -0.05362,0.183444 v 0.0085 q 0,0.121355 0.05362,0.183444 0.05362,0.06209 0.158044,0.06209 z m 1.422404,1.758243 q -0.07056,0 -0.07056,-0.07056 v -0.643466 q 0,-0.06491 0.04233,-0.08467 l 0.57291,-0.301977 v -0.09878 l -0.57291,-0.310444 q -0.04233,-0.02258 -0.04233,-0.09031 v -0.945444 q 0,-0.02258 0.0056,-0.04233 0.0056,-0.02258 0.03104,-0.04233 l 0.601133,-0.440267 q 0.01976,-0.01129 0.04233,-0.02258 0.02258,-0.01129 0.04798,-0.01129 h 0.874888 q 0.07056,0 0.07056,0.07055 v 0.629355 q 0,0.03669 -0.0056,0.05927 -0.0028,0.02258 -0.03104,0.03669 l -0.527755,0.285044 v 0.09596 l 0.516466,0.282222 q 0.04798,0.02258 0.04798,0.08467 v 0.911577 q 0,0.07056 -0.04798,0.112889 l -0.553155,0.499533 q -0.04516,0.03669 -0.112889,0.03669 z"
       id="text1-8"
       style="font-size:5.64444px;font-family:Jaro;-inkscape-font-specification:Jaro;fill:#ac1818;stroke:#000000;stroke-width:0.3;paint-order:stroke fill markers"
       aria-label="Keys for games" />
    <text
       xml:space="preserve"
       style="font-style:normal;font-variant:normal;font-weight:normal;font-stretch:normal;font-size:3.175px;font-family:Jaro;-inkscape-font-specification:Jaro;text-align:start;writing-mode:lr-tb;direction:ltr;text-anchor:start;opacity:0.539007;fill:#a12e2e;fill-opacity:1;stroke:#000000;stroke-width:0.1;stroke-dasharray:none;stroke-opacity:1"
       x="48.924953"
       y="102.7263"
       id="text2"><tspan
         sodipodi:role="line"
         id="tspan2"
         style="fill:#ac1818;fill-opacity:1;stroke-width:0.1"
         x="48.924953"
         y="102.7263" /></text>
    <text
       xml:space="preserve"
       style="font-style:normal;font-variant:normal;font-weight:normal;font-stretch:normal;font-size:3.175px;font-family:Jaro;-inkscape-font-specification:Jaro;text-align:start;writing-mode:lr-tb;direction:ltr;text-anchor:start;opacity:0.539007;fill:#ac1818;fill-opacity:1;stroke:#000000;stroke-width:0.1;stroke-dasharray:none;stroke-opacity:1;paint-order:stroke fill markers"
       x="53.410313"
       y="101.43819"
       id="text3"><tspan
         sodipodi:role="line"
         id="tspan3"
         style="stroke-width:0.1;paint-order:stroke fill markers"
         x="53.410313"
         y="101.43819" /></text>
    <text
       xml:space="preserve"
       style="font-style:normal;font-variant:normal;font-weight:normal;font-stretch:normal;font-size:3.175px;font-family:Jaro;-inkscape-font-specification:Jaro;text-align:start;writing-mode:lr-tb;direction:ltr;text-anchor:start;opacity:0.539007;fill:url(#linearGradient5);fill-opacity:1;stroke:#000000;stroke-width:0.1;stroke-dasharray:none;stroke-opacity:1;paint-order:stroke fill markers"
       x="50.949116"
       y="92.651489"
       id="text4"><tspan
         sodipodi:role="line"
         id="tspan4"
         style="fill:url(#linearGradient5);fill-opacity:1;stroke-width:0.1"
         x="50.949116"
         y="92.651489" /></text>
  </g>
</svg>
